<?xml version="1.0" encoding="UTF-8"?>
<svg xmlns="http://www.w3.org/2000/svg" width="512" height="512" viewBox="0 0 512 512">
  <!-- Background: Swedish flag blue (#006AA7) -->
  <rect width="512" height="512" rx="115" fill="#006AA7"/>
  
  <!-- Location pin in Swedish flag yellow (#FECC00) -->
  <g>
    <!-- Pin shadow for depth (subtle) -->
    <ellipse cx="260" cy="382" rx="65" ry="20" fill="#000000" opacity="0.2"/>
    
    <!-- Main pin body -->
    <circle cx="256" cy="180" r="90" fill="#FECC00"/>
    
    <!-- Inner circle for detail -->
    <circle cx="256" cy="180" r="60" fill="#006AA7"/>
    <circle cx="256" cy="180" r="35" fill="#FECC00"/>
    
    <!-- Pin point/needle -->
    <path d="M 256 270 L 220 370 L 256 390 L 292 370 Z" fill="#FECC00"/>
    
    <!-- Highlight for 3D effect -->
    <ellipse cx="226" cy="155" rx="25" ry="30" fill="#FFFFFF" opacity="0.35"/>
  </g>
  
  <!-- Coordinate grid lines for navigation theme (subtle) -->
  <g stroke="#FECC00" stroke-width="3" opacity="0.15" fill="none">
    <!-- Vertical lines -->
    <line x1="85" y1="50" x2="85" y2="130"/>
    <line x1="170" y1="50" x2="170" y2="130"/>
    <line x1="342" y1="50" x2="342" y2="130"/>
    <line x1="427" y1="50" x2="427" y2="130"/>
    
    <!-- Horizontal lines -->
    <line x1="50" y1="85" x2="130" y2="85"/>
    <line x1="50" y1="170" x2="130" y2="170"/>
    <line x1="382" y1="85" x2="462" y2="85"/>
    <line x1="382" y1="170" x2="462" y2="170"/>
  </g>
</svg>