<?xml version="1.0" encoding="UTF-8"?>
<svg xmlns="http://www.w3.org/2000/svg" width="512" height="512" viewBox="0 0 512 512">
  <!-- Blue water background -->
  <rect width="512" height="512" fill="#2563EB"/>
  
  <!-- Stylized landmasses in green -->
  <g fill="#22C55E">
    <!-- Main landmass (roughly Sweden-inspired shape) -->
    <path d="M 180 80 Q 200 60 240 70 Q 280 65 320 85 Q 350 110 360 150 Q 370 190 350 230 Q 340 270 320 310 Q 300 350 270 380 Q 240 400 210 390 Q 180 375 160 340 Q 150 300 155 260 Q 160 220 165 180 Q 170 140 180 80 Z"/>
    
    <!-- Smaller island/landmass -->
    <ellipse cx="400" cy="180" rx="35" ry="50"/>
    
    <!-- Additional small islands -->
    <circle cx="120" cy="300" r="15"/>
    <ellipse cx="380" cy="320" rx="20" ry="12"/>
    <circle cx="140" cy="150" r="10"/>
  </g>
  
  <!-- Angled location pin -->
  <g transform="translate(245, 220) rotate(-15)">
    <!-- Pin body (red with white center) -->
    <ellipse cx="0" cy="0" rx="28" ry="28" fill="#DC2626"/>
    <ellipse cx="0" cy="0" rx="18" ry="18" fill="#FFFFFF"/>
    <circle cx="0" cy="0" r="8" fill="#DC2626"/>
    
    <!-- Pin needle/point -->
    <path d="M 0 28 L -8 55 L 8 55 Z" fill="#DC2626"/>
    
    <!-- Pin highlight for 3D effect -->
    <ellipse cx="-8" cy="-8" rx="6" ry="6" fill="#FCA5A5" opacity="0.7"/>
  </g>
  
  <!-- Optional subtle shadow for the pin -->
  <g transform="translate(250, 225) rotate(-15)" opacity="0.3">
    <ellipse cx="0" cy="0" rx="28" ry="28" fill="#000000"/>
    <path d="M 0 28 L -8 55 L 8 55 Z" fill="#000000"/>
  </g>
</svg>