<?xml version="1.0" encoding="UTF-8"?>
<svg xmlns="http://www.w3.org/2000/svg" width="512" height="512" viewBox="0 0 512 512">
  <!-- Blue water background -->
  <rect width="512" height="512" fill="#2563EB"/>
  
  <!-- Stylized landmasses in green -->
  <g fill="#22C55E">
    <!-- Main landmass extending beyond left edge to look like coastline -->
    <path d="M -50 100 Q 0 80 50 85 Q 100 75 150 85 Q 200 80 250 90 Q 300 100 340 130 Q 370 160 380 200 Q 390 240 370 280 Q 360 320 340 360 Q 310 390 270 410 Q 230 420 190 410 Q 150 395 120 370 Q 90 340 70 300 Q 50 260 55 220 Q 60 180 70 140 Q 80 100 -50 100 Z"/>
    
    <!-- Additional landmass on right side -->
    <ellipse cx="420" cy="180" rx="40" ry="60"/>
    
    <!-- Small coastal features -->
    <ellipse cx="400" cy="320" rx="25" ry="15"/>
  </g>
  
  <!-- Much larger angled location pin -->
  <g transform="translate(220, 200) rotate(-15)">
    <!-- Pin body (red with white center) -->
    <ellipse cx="0" cy="0" rx="45" ry="45" fill="#DC2626"/>
    <ellipse cx="0" cy="0" rx="30" ry="30" fill="#FFFFFF"/>
    <circle cx="0" cy="0" r="15" fill="#DC2626"/>
    
    <!-- Pin needle/point -->
    <path d="M 0 45 L -12 80 L 12 80 Z" fill="#DC2626"/>
    
    <!-- Pin highlight for 3D effect -->
    <ellipse cx="-12" cy="-12" rx="10" ry="10" fill="#FCA5A5" opacity="0.7"/>
  </g>
  
  <!-- Optional subtle shadow for the pin -->
  <g transform="translate(225, 205) rotate(-15)" opacity="0.3">
    <ellipse cx="0" cy="0" rx="45" ry="45" fill="#000000"/>
    <path d="M 0 45 L -12 80 L 12 80 Z" fill="#000000"/>
  </g>
</svg>