<?xml version="1.0" encoding="UTF-8"?>
<svg xmlns="http://www.w3.org/2000/svg" width="512" height="512" viewBox="0 0 512 512">
  <!-- Swedish flag background (brighter blue) -->
  <rect width="512" height="512" fill="#0080FF"/>
  
  <!-- Swedish flag yellow cross - horizontal bar -->
  <rect x="0" y="192" width="512" height="128" fill="#FFD700"/>
  
  <!-- Swedish flag yellow cross - vertical bar (centered) -->
  <rect x="192" y="0" width="128" height="512" fill="#FFD700"/>
  
  <!-- Circle-based crosshairs overlay in darker blue for contrast -->
  <g stroke="#002B5C" fill="none">
    <!-- Main crosshair circle -->
    <circle cx="256" cy="256" r="80" stroke-width="16"/>
    
    <!-- Horizontal crosshair lines (thicker) -->
    <line x1="64" y1="256" x2="176" y2="256" stroke-width="12"/>
    <line x1="336" y1="256" x2="448" y2="256" stroke-width="12"/>
    
    <!-- Vertical crosshair lines (thicker) -->
    <line x1="256" y1="64" x2="256" y2="176" stroke-width="12"/>
    <line x1="256" y1="336" x2="256" y2="448" stroke-width="12"/>
    
    <!-- Center targeting circle -->
    <circle cx="256" cy="256" r="32" stroke-width="10"/>
    
    <!-- Inner precision dot -->
    <circle cx="256" cy="256" r="8" fill="#002B5C"/>
    
    <!-- Radial targeting marks on the main circle -->
    <g stroke-width="8">
      <!-- Cardinal directions -->
      <line x1="256" y1="176" x2="256" y2="188"/>
      <line x1="256" y1="324" x2="256" y2="336"/>
      <line x1="176" y1="256" x2="188" y2="256"/>
      <line x1="324" y1="256" x2="336" y2="256"/>
      
      <!-- Diagonal marks -->
      <line x1="213.1" y1="213.1" x2="221.6" y2="221.6"/>
      <line x1="298.9" y1="213.1" x2="290.4" y2="221.6"/>
      <line x1="213.1" y1="298.9" x2="221.6" y2="290.4"/>
      <line x1="298.9" y1="298.9" x2="290.4" y2="290.4"/>
    </g>
  </g>
</svg>